<?xml version="1.0" encoding="utf-8"?>
<svg xmlns="http://www.w3.org/2000/svg" viewBox="0 0 50 50" width="500" height="500">
  <path d="M6 4C5.4777778 4 4.9453899 4.1913289 4.5683594 4.5683594C4.1913289 4.9453899 4 5.4777778 4 6L4 22C4 22.522222 4.1913289 23.05461 4.5683594 23.431641C4.9453899 23.808671 5.4777778 24 6 24L22 24C22.522222 24 23.05461 23.808671 23.431641 23.431641C23.808671 23.05461 24 22.522222 24 22L24 6C24 5.4777778 23.808671 4.9453899 23.431641 4.5683594C23.05461 4.1913289 22.522222 4 22 4L6 4 z M 28 4C27.477778 4 26.94539 4.1913289 26.568359 4.5683594C26.191329 4.9453899 26 5.4777778 26 6L26 22C26 22.522222 26.191329 23.05461 26.568359 23.431641C26.94539 23.808671 27.477778 24 28 24L44 24C44.522222 24 45.05461 23.808671 45.431641 23.431641C45.808671 23.05461 46 22.522222 46 22L46 6C46 5.4777778 45.808671 4.9453899 45.431641 4.5683594C45.05461 4.1913289 44.522222 4 44 4L28 4 z M 6 6L22 6L22 22L6 22L6 6 z M 28 6L44 6L44 22L28 22L28 6 z M 8 7 A 1 1 0 0 0 7 8 A 1 1 0 0 0 8 9 A 1 1 0 0 0 9 8 A 1 1 0 0 0 8 7 z M 14 7 A 1 1 0 0 0 13 8 A 1 1 0 0 0 14 9 A 1 1 0 0 0 15 8 A 1 1 0 0 0 14 7 z M 20 7 A 1 1 0 0 0 19 8 A 1 1 0 0 0 20 9 A 1 1 0 0 0 21 8 A 1 1 0 0 0 20 7 z M 11 10 A 1 1 0 0 0 10 11 A 1 1 0 0 0 11 12 A 1 1 0 0 0 12 11 A 1 1 0 0 0 11 10 z M 17 10 A 1 1 0 0 0 16 11 A 1 1 0 0 0 17 12 A 1 1 0 0 0 18 11 A 1 1 0 0 0 17 10 z M 8 13 A 1 1 0 0 0 7 14 A 1 1 0 0 0 8 15 A 1 1 0 0 0 9 14 A 1 1 0 0 0 8 13 z M 14 13 A 1 1 0 0 0 13 14 A 1 1 0 0 0 14 15 A 1 1 0 0 0 15 14 A 1 1 0 0 0 14 13 z M 20 13 A 1 1 0 0 0 19 14 A 1 1 0 0 0 20 15 A 1 1 0 0 0 21 14 A 1 1 0 0 0 20 13 z M 11 16 A 1 1 0 0 0 10 17 A 1 1 0 0 0 11 18 A 1 1 0 0 0 12 17 A 1 1 0 0 0 11 16 z M 17 16 A 1 1 0 0 0 16 17 A 1 1 0 0 0 17 18 A 1 1 0 0 0 18 17 A 1 1 0 0 0 17 16 z M 8 19 A 1 1 0 0 0 7 20 A 1 1 0 0 0 8 21 A 1 1 0 0 0 9 20 A 1 1 0 0 0 8 19 z M 14 19 A 1 1 0 0 0 13 20 A 1 1 0 0 0 14 21 A 1 1 0 0 0 15 20 A 1 1 0 0 0 14 19 z M 20 19 A 1 1 0 0 0 19 20 A 1 1 0 0 0 20 21 A 1 1 0 0 0 21 20 A 1 1 0 0 0 20 19 z M 32.980469 25.990234 A 1.0001 1.0001 0 0 0 32.869141 26L28 26C27.477778 26 26.94539 26.191329 26.568359 26.568359C26.191329 26.94539 26 27.477778 26 28L26 32.847656 A 1.0001 1.0001 0 0 0 26 33.179688L26 38.847656 A 1.0001 1.0001 0 0 0 26 39.179688L26 44C26 44.522222 26.191329 45.05461 26.568359 45.431641C26.94539 45.808671 27.477778 46 28 46L32.824219 46 A 1.0001 1.0001 0 0 0 33.152344 46L38.824219 46 A 1.0001 1.0001 0 0 0 39.152344 46L44 46C44.522222 46 45.05461 45.808671 45.431641 45.431641C45.808671 45.05461 46 44.522222 46 44L46 39.126953 A 1.0001 1.0001 0 0 0 46 38.851562L46 33.126953 A 1.0001 1.0001 0 0 0 46 32.851562L46 28C46 27.477778 45.808671 26.94539 45.431641 26.568359C45.05461 26.191329 44.522222 26 44 26L39.146484 26 A 1.0001 1.0001 0 0 0 38.980469 25.990234 A 1.0001 1.0001 0 0 0 38.869141 26L33.146484 26 A 1.0001 1.0001 0 0 0 32.980469 25.990234 z M 6 26C5.4777778 26 4.9453899 26.191329 4.5683594 26.568359C4.1913289 26.94539 4 27.477778 4 28L4 44C4 44.522222 4.1913289 45.05461 4.5683594 45.431641C4.9453899 45.808671 5.4777778 46 6 46L22 46C22.522222 46 23.05461 45.808671 23.431641 45.431641C23.808671 45.05461 24 44.522222 24 44L24 28C24 27.477778 23.808671 26.94539 23.431641 26.568359C23.05461 26.191329 22.522222 26 22 26L6 26 z M 6 28L22 28L22 44L6 44L6 28 z M 28 28L30.585938 28L28 30.585938L28 28 z M 33.414062 28L36.585938 28L28 36.585938L28 33.414062L33.414062 28 z M 39.414062 28L42.585938 28L28 42.585938L28 39.414062L39.414062 28 z M 10 29C8.3549904 29 7 30.35499 7 32C7 33.64501 8.3549904 35 10 35C11.64501 35 13 33.64501 13 32C13 30.35499 11.64501 29 10 29 z M 18 29C16.35499 29 15 30.35499 15 32C15 33.64501 16.35499 35 18 35C19.64501 35 21 33.64501 21 32C21 30.35499 19.64501 29 18 29 z M 44 29.414062L44 32.585938L32.585938 44L29.414062 44L44 29.414062 z M 10 31C10.564129 31 11 31.435871 11 32C11 32.564129 10.564129 33 10 33C9.4358706 33 9 32.564129 9 32C9 31.435871 9.4358706 31 10 31 z M 18 31C18.564129 31 19 31.435871 19 32C19 32.564129 18.564129 33 18 33C17.435871 33 17 32.564129 17 32C17 31.435871 17.435871 31 18 31 z M 44 35.414062L44 38.585938L38.585938 44L35.414062 44L44 35.414062 z M 10 37C8.3549904 37 7 38.35499 7 40C7 41.64501 8.3549904 43 10 43C11.64501 43 13 41.64501 13 40C13 38.35499 11.64501 37 10 37 z M 18 37C16.35499 37 15 38.35499 15 40C15 41.64501 16.35499 43 18 43C19.64501 43 21 41.64501 21 40C21 38.35499 19.64501 37 18 37 z M 10 39C10.564129 39 11 39.435871 11 40C11 40.564129 10.564129 41 10 41C9.4358706 41 9 40.564129 9 40C9 39.435871 9.4358706 39 10 39 z M 18 39C18.564129 39 19 39.435871 19 40C19 40.564129 18.564129 41 18 41C17.435871 41 17 40.564129 17 40C17 39.435871 17.435871 39 18 39 z M 44 41.414062L44 44L41.414062 44L44 41.414062 z" />
</svg>