<?xml version="1.0" encoding="utf-8"?>
<svg xmlns="http://www.w3.org/2000/svg" viewBox="0 0 50 50" width="500" height="500">
  <path d="M24 0L24 1L24 4.0234375C13.208549 4.5309414 4.5329027 13.208443 4.0253906 24L1 24L0 24L0 26L1 26L4.0253906 26C4.5329027 36.791557 13.208549 45.469059 24 45.976562L24 49L24 50L26 50L26 49L26 45.974609C36.79155 45.467098 45.467098 36.79155 45.974609 26L49 26L50 26L50 24L49 24L45.974609 24C45.467098 13.20845 36.79155 4.5329024 26 4.0253906L26 1L26 0L24 0 z M 24 6.0488281L24 9L24 10L26 10L26 9L26 6.0507812C35.703044 6.5553041 43.444696 14.296956 43.949219 24L41 24L40 24L40 26L41 26L43.949219 26C43.444696 35.703044 35.703044 43.444696 26 43.949219L26 41L26 40L24 40L24 41L24 43.951172C14.298476 43.446281 6.5553046 35.703053 6.0507812 26L9 26L10 26L10 24L9 24L6.0507812 24C6.5553046 14.296947 14.298476 6.5537194 24 6.0488281 z M 25 18C21.145851 18 18 21.145851 18 25C18 28.854149 21.145851 32 25 32C28.854149 32 32 28.854149 32 25C32 21.145851 28.854149 18 25 18 z M 25 20C27.773268 20 30 22.226732 30 25C30 27.773268 27.773268 30 25 30C22.226732 30 20 27.773268 20 25C20 22.226732 22.226732 20 25 20 z" />
</svg>