<?xml version="1.0" encoding="utf-8"?>
<svg xmlns="http://www.w3.org/2000/svg" viewBox="0 0 50 50" width="500" height="500">
  <path d="M23 0L23 4.0957031C13.018702 5.0446992 5.046896 13.018494 4.0976562 23L0 23L0 27L4.0976562 27C5.046896 36.981506 13.018702 44.955301 23 45.904297L23 50L27 50L27 45.902344C36.981223 44.953131 44.953131 36.981223 45.902344 27L50 27L50 23L45.902344 23C44.953131 13.018777 36.981223 5.046869 27 4.0976562L27 0L23 0 z M 27 8.1269531C34.805997 9.0369175 40.963083 15.194003 41.873047 23L39 23L39 27L41.873047 27C40.963083 34.805997 34.805997 40.963083 27 41.873047L27 39L23 39L23 41.871094C15.196372 40.959902 9.0368425 34.805354 8.1269531 27L11 27L11 23L8.1269531 23C9.0368425 15.194646 15.196372 9.0400983 23 8.1289062L23 11L27 11L27 8.1269531 z M 25 18 A 7 7 0 0 0 18 25 A 7 7 0 0 0 25 32 A 7 7 0 0 0 32 25 A 7 7 0 0 0 25 18 z" />
</svg>